<svg width="34" height="34" viewBox="0 0 34 34" fill="none" xmlns="http://www.w3.org/2000/svg">
<path d="M32.8458 16.5697C32.7994 16.4648 31.6744 13.9692 29.1736 11.4684C25.8413 8.13609 21.6325 6.375 17 6.375C12.3675 6.375 8.15866 8.13609 4.82639 11.4684C2.32553 13.9692 1.1953 16.4688 1.15413 16.5697C1.09372 16.7056 1.0625 16.8526 1.0625 17.0013C1.0625 17.15 1.09372 17.2971 1.15413 17.433C1.20061 17.5379 2.32553 20.0321 4.82639 22.533C8.15866 25.8639 12.3675 27.625 17 27.625C21.6325 27.625 25.8413 25.8639 29.1736 22.533C31.6744 20.0321 32.7994 17.5379 32.8458 17.433C32.9063 17.2971 32.9375 17.15 32.9375 17.0013C32.9375 16.8526 32.9063 16.7056 32.8458 16.5697ZM17 25.5C12.912 25.5 9.34069 24.0138 6.38428 21.084C5.17128 19.8776 4.13925 18.502 3.3203 17C4.13894 15.4978 5.17099 14.1222 6.38428 12.916C9.34069 9.98617 12.912 8.5 17 8.5C21.088 8.5 24.6593 9.98617 27.6157 12.916C28.831 14.1219 29.8653 15.4976 30.6863 17C29.7287 18.7877 25.5571 25.5 17 25.5ZM17 10.625C15.7391 10.625 14.5066 10.9989 13.4582 11.6994C12.4099 12.3999 11.5928 13.3955 11.1103 14.5604C10.6277 15.7253 10.5015 17.0071 10.7475 18.2437C10.9935 19.4803 11.6006 20.6162 12.4922 21.5078C13.3837 22.3994 14.5197 23.0065 15.7563 23.2525C16.9929 23.4985 18.2747 23.3722 19.4396 22.8897C20.6045 22.4072 21.6001 21.5901 22.3006 20.5418C23.0011 19.4934 23.375 18.2609 23.375 17C23.3732 15.3098 22.701 13.6893 21.5059 12.4941C20.3107 11.299 18.6902 10.6268 17 10.625ZM17 21.25C16.1594 21.25 15.3377 21.0007 14.6388 20.5337C13.9399 20.0667 13.3952 19.403 13.0735 18.6264C12.7518 17.8498 12.6677 16.9953 12.8316 16.1709C12.9956 15.3464 13.4004 14.5892 13.9948 13.9948C14.5892 13.4004 15.3464 12.9956 16.1709 12.8317C16.9953 12.6677 17.8498 12.7518 18.6264 13.0735C19.403 13.3952 20.0667 13.9399 20.5337 14.6388C21.0007 15.3377 21.25 16.1594 21.25 17C21.25 18.1272 20.8022 19.2082 20.0052 20.0052C19.2082 20.8022 18.1272 21.25 17 21.25Z" fill="#8F8F8F"/>
</svg>
